<?xml version="1.0" standalone="no"?>
<!DOCTYPE svg PUBLIC "-//W3C//DTD SVG 20010904//EN"
 "http://www.w3.org/TR/2001/REC-SVG-20010904/DTD/svg10.dtd">
<svg version="1.0" xmlns="http://www.w3.org/2000/svg"
 width="110.000000pt" height="42.000000pt" viewBox="0 0 110.000000 42.000000"
 preserveAspectRatio="xMidYMid meet">
<metadata>
Created by potrace 1.16, written by Peter Selinger 2001-2019
</metadata>
<g transform="translate(0.000000,42.000000) scale(0.100000,-0.100000)"
fill="#000000" stroke="none">
<path d="M450 320 l0 -100 60 0 c47 0 60 3 60 15 0 14 3 14 30 0 47 -24 87
-19 122 15 17 17 28 24 24 15 -3 -8 -9 -22 -12 -30 -4 -11 0 -15 16 -15 13 0
24 8 27 20 8 28 69 28 78 0 5 -15 15 -20 45 -20 l39 0 3 52 3 52 40 -52 c21
-29 43 -52 47 -52 4 0 8 45 8 100 0 81 -3 100 -15 100 -10 0 -15 -15 -17 -55
l-3 -56 -43 56 c-24 30 -47 55 -53 55 -5 0 -9 -42 -9 -92 l-1 -93 -36 93 c-34
85 -62 117 -64 75 0 -10 -11 -40 -24 -68 l-23 -50 -1 36 c-2 72 -73 117 -141
89 -44 -18 -63 -54 -57 -106 l5 -44 -39 0 -39 0 0 80 c0 64 -3 80 -15 80 -12
0 -15 -18 -15 -100z"/>
<path d="M605 179 c-61 -35 -73 -103 -26 -150 49 -48 125 -36 159 26 9 17 11
17 12 3 0 -43 92 -74 141 -48 13 7 19 7 19 0 0 -5 9 -10 20 -10 16 0 20 7 20
31 l0 31 26 -31 c23 -28 64 -43 64 -23 0 4 -16 23 -35 42 -19 19 -35 36 -35
39 0 4 12 19 26 35 22 25 33 29 65 27 33 -1 39 1 39 19 0 17 -6 20 -42 20 -34
0 -49 -6 -75 -32 l-33 -32 0 26 c0 32 -15 44 -35 28 -10 -9 -19 -9 -35 0 -32
17 -85 4 -112 -28 l-22 -27 -26 28 c-28 31 -84 44 -115 26z"/>
</g>
</svg>
