<?xml version="1.0" standalone="no"?>
<!DOCTYPE svg PUBLIC "-//W3C//DTD SVG 20010904//EN"
 "http://www.w3.org/TR/2001/REC-SVG-20010904/DTD/svg10.dtd">
<svg version="1.0" xmlns="http://www.w3.org/2000/svg"
 width="116.000000pt" height="79.000000pt" viewBox="0 0 116.000000 79.000000"
 preserveAspectRatio="xMidYMid meet">

<g transform="translate(0.000000,79.000000) scale(0.100000,-0.100000)"
fill="#000000" stroke="none">
<path d="M180 195 c0 -69 3 -85 15 -85 11 0 15 12 15 48 l0 47 21 -32 c12 -18
24 -33 28 -33 4 0 16 17 27 38 l19 37 3 -52 c5 -86 22 -60 22 32 0 49 -4 85
-10 85 -5 0 -22 -24 -36 -52 l-27 -53 -25 53 c-39 77 -52 69 -52 -33z"/>
<path d="M400 195 l0 -85 50 0 c28 0 50 5 50 10 0 6 -18 10 -40 10 -36 0 -40
3 -40 25 0 22 4 25 35 25 24 0 35 5 35 15 0 11 -11 15 -36 15 -31 0 -35 3 -32
23 2 18 10 23 41 25 55 5 45 22 -13 22 l-50 0 0 -85z"/>
<path d="M560 194 c0 -64 3 -85 13 -82 6 3 13 19 15 36 4 43 28 41 49 -3 9
-19 23 -35 30 -35 16 0 16 0 -3 38 -14 29 -14 33 0 48 39 39 7 84 -60 84 l-44
0 0 -86z m74 60 c21 -8 21 -40 0 -48 -33 -13 -44 -6 -44 24 0 30 11 37 44 24z"/>
<path d="M740 195 c0 -69 3 -85 15 -85 12 0 15 16 15 85 0 69 -3 85 -15 85
-12 0 -15 -16 -15 -85z"/>
<path d="M832 273 c2 -5 12 -24 22 -45 19 -36 19 -37 -3 -71 -24 -39 -26 -47
-11 -47 6 0 19 14 30 32 l19 32 18 -32 c10 -18 24 -32 31 -32 17 0 15 9 -12
50 l-24 35 25 43 c21 35 22 42 9 42 -9 0 -22 -11 -28 -25 -6 -14 -15 -25 -20
-25 -5 0 -14 11 -20 25 -6 14 -18 25 -25 25 -8 0 -13 -3 -11 -7z"/>
</g>
</svg>
