<svg version="1.0" xmlns="http://www.w3.org/2000/svg"
 width="150.000000pt" height="50.000000pt" viewBox="0 0 150.000000 50.000000"
 preserveAspectRatio="xMidYMid meet">

<g transform="translate(0.000000,50.000000) scale(0.100000,-0.100000)"
fill="#000000" stroke="none">
<path d="M355 254 c-21 -21 -16 -53 11 -71 19 -12 24 -11 45 6 18 15 20 20 9
21 -9 0 -21 -5 -26 -10 -15 -15 -38 14 -30 36 4 11 13 14 31 10 27 -7 35 8 9
18 -24 9 -31 8 -49 -10z"/>
<path d="M447 263 c-11 -10 -8 -83 3 -83 6 0 10 12 10 26 0 14 4 23 10 19 6
-3 10 -15 10 -26 0 -27 19 -24 30 6 5 14 12 25 16 25 3 0 3 -11 0 -25 -4 -14
-2 -25 4 -25 5 0 10 20 10 45 0 55 -25 63 -38 13 l-8 -33 -12 33 c-11 31 -22
39 -35 25z"/>
<path d="M566 263 c-3 -3 -6 -24 -6 -45 0 -38 0 -38 38 -37 23 1 28 3 15 6
-19 4 -23 11 -23 38 0 33 -11 51 -24 38z"/>
<path d="M652 258 c-18 -18 -15 -27 13 -38 34 -13 32 -32 -2 -25 -26 6 -27 5
-10 -9 13 -10 26 -12 40 -7 34 13 32 37 -2 49 -38 13 -41 27 -5 18 19 -5 25
-3 22 6 -6 18 -40 22 -56 6z"/>
<path d="M777 263 c-11 -10 -8 -83 3 -83 6 0 10 7 10 15 0 8 9 15 20 15 11 0
20 5 20 10 0 6 -9 10 -21 10 -11 0 -17 5 -14 10 3 6 15 10 26 10 10 0 19 5 19
10 0 11 -53 14 -63 3z"/>
<path d="M1330 225 c0 -25 5 -45 10 -45 6 0 10 20 10 45 0 25 -4 45 -10 45 -5
0 -10 -20 -10 -45z"/>
<path d="M850 210 c0 -16 5 -30 10 -30 6 0 10 14 10 30 0 17 -4 30 -10 30 -5
0 -10 -13 -10 -30z"/>
<path d="M890 211 c0 -36 17 -42 22 -8 2 12 8 22 13 22 6 0 11 -10 13 -22 5
-33 24 -28 20 5 -2 22 -8 28 -35 30 -31 3 -33 1 -33 -27z"/>
<path d="M980 231 c0 -5 10 -7 23 -4 19 4 18 2 -5 -12 -30 -17 -36 -31 -15
-38 27 -9 47 5 47 34 0 24 -4 29 -25 29 -14 0 -25 -4 -25 -9z m35 -31 c3 -5
-1 -10 -10 -10 -9 0 -13 5 -10 10 3 6 8 10 10 10 2 0 7 -4 10 -10z"/>
<path d="M1050 211 c0 -36 17 -42 22 -8 2 12 8 22 13 22 6 0 11 -10 13 -22 5
-33 24 -28 20 5 -2 22 -8 28 -35 30 -31 3 -33 1 -33 -27z"/>
<path d="M1136 224 c-10 -25 -7 -33 13 -43 13 -7 23 -6 37 4 18 14 18 15 -6
12 -17 -1 -25 3 -25 13 0 10 8 14 23 13 13 -2 21 1 17 7 -10 16 -52 12 -59 -6z"/>
<path d="M1210 210 c0 -16 5 -30 10 -30 6 0 10 14 10 30 0 17 -4 30 -10 30 -5
0 -10 -13 -10 -30z"/>
<path d="M1254 229 c-4 -7 0 -9 13 -5 14 4 19 1 20 -14 1 -11 -3 -20 -8 -20
-6 0 -7 5 -4 10 3 6 -1 10 -9 10 -9 0 -16 -7 -16 -15 0 -10 10 -15 30 -15 27
0 30 3 30 30 0 25 -4 30 -24 30 -14 0 -28 -5 -32 -11z"/>
</g>
</svg>
