<?xml version="1.0" standalone="no"?>
<!DOCTYPE svg PUBLIC "-//W3C//DTD SVG 20010904//EN"
 "http://www.w3.org/TR/2001/REC-SVG-20010904/DTD/svg10.dtd">
<svg version="1.0" xmlns="http://www.w3.org/2000/svg"
 width="152.000000pt" height="59.000000pt" viewBox="0 0 152.000000 59.000000"
 preserveAspectRatio="xMidYMid meet">

<g transform="translate(0.000000,59.000000) scale(0.100000,-0.100000)"
fill="#000000" stroke="none">
<path d="M87 514 c-4 -4 -7 -103 -7 -221 l0 -213 215 0 215 0 -2 218 -3 217
-205 3 c-113 2 -209 0 -213 -4z m243 -93 c0 -17 5 -33 10 -36 6 -3 10 -2 10 4
0 6 9 15 21 22 17 9 25 7 45 -12 29 -27 30 -45 4 -59 -31 -16 -24 -30 15 -30
34 0 35 -1 35 -40 0 -40 0 -40 -38 -40 -50 0 -82 31 -64 61 11 17 9 19 -13 19
-21 0 -25 5 -25 27 0 26 -1 26 -17 10 -16 -15 -16 -18 0 -35 13 -14 17 -37 17
-90 l0 -72 -40 0 -40 0 0 67 c0 53 4 71 20 88 l20 22 -20 18 c-20 18 -20 18
-20 -8 0 -23 -4 -27 -27 -27 -25 0 -26 0 -8 -20 17 -19 17 -21 0 -40 -14 -16
-29 -20 -59 -18 -40 3 -41 4 -41 38 0 32 3 35 33 38 37 4 40 12 12 37 -22 20
-14 47 21 66 17 9 25 7 45 -12 l24 -22 0 36 c0 36 1 37 40 37 38 0 40 -2 40
-29z"/>
<path d="M580 300 c0 -59 0 -60 29 -60 36 0 54 21 46 52 -5 19 -1 29 18 41 41
26 52 -9 17 -53 -27 -35 -25 -40 15 -40 37 0 47 13 19 24 -16 6 -16 8 0 24 25
28 21 60 -9 68 -15 4 -32 1 -41 -6 -11 -10 -18 -10 -26 -2 -7 7 -25 12 -40 12
-28 0 -28 -1 -28 -60z m50 25 c0 -8 -4 -15 -10 -15 -5 0 -10 7 -10 15 0 8 5
15 10 15 6 0 10 -7 10 -15z m0 -50 c0 -8 -4 -15 -10 -15 -5 0 -10 7 -10 15 0
8 5 15 10 15 6 0 10 -7 10 -15z"/>
<path d="M760 300 c0 -59 1 -60 28 -60 41 0 49 11 49 58 0 45 -15 62 -56 62
-19 0 -21 -6 -21 -60z m50 25 c0 -8 -4 -15 -10 -15 -5 0 -10 7 -10 15 0 8 5
15 10 15 6 0 10 -7 10 -15z m0 -50 c0 -8 -4 -15 -10 -15 -5 0 -10 7 -10 15 0
8 5 15 10 15 6 0 10 -7 10 -15z"/>
<path d="M890 300 c0 -58 1 -60 26 -60 14 0 34 5 45 10 14 8 19 7 19 -2 0 -6
10 -1 22 12 l22 23 14 -21 c16 -25 32 -29 32 -8 0 24 -39 108 -48 102 -5 -3
-14 -23 -22 -45 -15 -47 -30 -45 -30 4 0 35 -13 45 -56 45 -23 0 -24 -3 -24
-60z m50 25 c0 -8 -4 -15 -10 -15 -5 0 -10 7 -10 15 0 8 5 15 10 15 6 0 10 -7
10 -15z m90 -25 c0 -5 -5 -10 -11 -10 -5 0 -7 5 -4 10 3 6 8 10 11 10 2 0 4
-4 4 -10z m-90 -25 c0 -8 -4 -15 -10 -15 -5 0 -10 7 -10 15 0 8 5 15 10 15 6
0 10 -7 10 -15z"/>
<path d="M1092 300 c1 -36 3 -50 5 -32 5 40 13 40 41 2 13 -16 27 -30 32 -30
6 0 10 27 10 61 0 37 -4 58 -10 54 -5 -3 -10 -19 -10 -35 l0 -30 -35 38 -34
37 1 -65z"/>
<path d="M1200 300 c0 -33 4 -60 10 -60 6 0 10 10 10 23 l1 22 18 -22 c18 -21
47 -33 39 -15 -2 4 -10 19 -17 34 -13 25 -12 30 4 48 10 11 15 23 11 28 -4 4
-16 -3 -26 -15 -22 -28 -30 -29 -30 -3 0 11 -4 20 -10 20 -6 0 -10 -27 -10
-60z"/>
</g>
</svg>
