<?xml version="1.0" standalone="no"?>
<!DOCTYPE svg PUBLIC "-//W3C//DTD SVG 20010904//EN"
 "http://www.w3.org/TR/2001/REC-SVG-20010904/DTD/svg10.dtd">
<svg version="1.0" xmlns="http://www.w3.org/2000/svg"
 width="143.000000pt" height="58.000000pt" viewBox="0 0 143.000000 58.000000"
 preserveAspectRatio="xMidYMid meet">

<g transform="translate(0.000000,58.000000) scale(0.100000,-0.100000)"
fill="#000000" stroke="none">
<path d="M173 499 l-63 -20 0 -116 c0 -115 0 -115 23 -109 108 31 115 31 139
1 13 -16 26 -33 30 -38 4 -6 32 -3 77 8 l71 19 0 119 c0 91 -3 118 -12 114 -7
-2 -39 -12 -71 -21 -65 -19 -60 -21 -103 42 -9 12 -19 22 -23 21 -3 0 -34 -10
-68 -20z"/>
<path d="M540 430 c0 -55 17 -69 22 -17 l3 32 18 -32 c25 -47 37 -41 37 17 0
53 -16 69 -22 23 l-4 -28 -14 28 c-22 44 -40 34 -40 -23z"/>
<path d="M649 434 c-22 -53 -20 -61 10 -42 17 11 25 10 42 0 20 -13 21 -12 15
12 -12 47 -25 76 -36 76 -6 0 -20 -21 -31 -46z m41 -5 c0 -5 -4 -9 -10 -9 -5
0 -10 7 -10 16 0 8 5 12 10 9 6 -3 10 -10 10 -16z"/>
<path d="M723 473 c13 -3 17 -15 17 -49 0 -24 5 -44 10 -44 6 0 10 20 10 44 0
26 5 46 13 49 6 3 -6 5 -28 5 -22 0 -32 -2 -22 -5z"/>
<path d="M794 466 c-8 -22 0 -81 11 -81 6 0 11 21 13 48 3 45 -12 65 -24 33z"/>
<path d="M842 468 c-15 -15 -16 -60 0 -76 16 -16 53 -15 67 2 7 8 11 30 9 48
-3 29 -7 33 -33 36 -17 2 -36 -3 -43 -10z m53 -33 c0 -23 -5 -31 -22 -33 -19
-3 -23 1 -23 26 0 33 8 44 30 40 9 -2 15 -14 15 -33z"/>
<path d="M937 473 c-11 -10 -8 -81 3 -88 6 -4 10 7 10 24 0 39 10 39 32 1 25
-44 38 -37 38 20 0 28 -4 50 -10 50 -5 0 -10 -11 -10 -25 0 -14 -4 -25 -8 -25
-5 0 -14 11 -20 25 -12 25 -23 31 -35 18z"/>
<path d="M1050 455 c-19 -49 -22 -75 -11 -75 6 0 11 5 11 10 0 14 33 13 48 -2
16 -16 16 2 0 53 -13 45 -34 51 -48 14z m26 -32 c-10 -10 -19 5 -10 18 6 11 8
11 12 0 2 -7 1 -15 -2 -18z"/>
<path d="M1130 430 c0 -49 1 -50 30 -50 17 0 30 5 30 10 0 6 -9 10 -20 10 -17
0 -20 7 -20 40 0 22 -4 40 -10 40 -5 0 -10 -22 -10 -50z"/>
<path d="M540 291 c0 -49 1 -51 29 -51 37 0 49 16 47 60 -1 33 -4 35 -39 38
l-37 3 0 -50z m54 30 c3 -5 0 -11 -8 -14 -15 -6 -26 1 -26 15 0 11 27 10 34
-1z m6 -46 c0 -8 -9 -15 -20 -15 -11 0 -20 7 -20 15 0 8 9 15 20 15 11 0 20
-7 20 -15z"/>
<path d="M653 328 c-14 -18 -34 -80 -28 -86 3 -3 11 0 17 6 16 16 45 15 51 0
2 -7 8 -10 12 -6 9 9 -18 91 -32 95 -5 2 -15 -2 -20 -9z m27 -39 c0 -5 -4 -9
-10 -9 -5 0 -10 7 -10 16 0 8 5 12 10 9 6 -3 10 -10 10 -16z"/>
<path d="M727 333 c-10 -10 -8 -81 2 -88 6 -3 11 12 13 32 l3 38 23 -38 c12
-21 27 -35 32 -32 15 9 13 98 -2 92 -7 -2 -12 -14 -11 -26 4 -29 -11 -27 -25
4 -12 25 -23 31 -35 18z"/>
<path d="M820 290 c0 -27 5 -50 10 -50 6 0 10 9 10 20 0 26 14 25 33 -2 8 -13
18 -20 22 -16 3 3 -1 18 -11 32 -16 25 -16 28 1 46 23 25 0 28 -27 3 -17 -15
-18 -15 -18 0 0 10 -4 17 -10 17 -5 0 -10 -22 -10 -50z"/>
<path d="M562 194 c-26 -18 -29 -56 -6 -78 21 -22 50 -20 67 4 l14 21 6 -22
c3 -11 10 -18 16 -15 6 4 7 14 4 22 -4 10 2 17 16 21 27 7 27 23 0 23 -11 0
-17 5 -14 10 3 6 15 10 26 10 10 0 19 5 19 10 0 18 -48 11 -62 -9 -14 -20 -14
-20 -26 0 -15 23 -30 24 -60 3z m48 -19 c18 -22 3 -57 -23 -53 -37 5 -33 67 4
68 4 0 12 -7 19 -15z"/>
<path d="M787 192 c-47 -51 10 -124 58 -76 19 20 12 32 -10 14 -21 -18 -45 -5
-45 25 0 30 24 43 45 25 22 -18 29 -6 10 14 -21 21 -38 20 -58 -2z"/>
<path d="M1163 203 c-8 -3 -13 -24 -13 -54 0 -43 3 -49 21 -49 38 0 59 19 59
53 0 48 -26 67 -67 50z m42 -48 c0 -20 -6 -31 -17 -33 -15 -3 -18 4 -18 33 0
29 3 36 18 33 11 -2 17 -13 17 -33z"/>
<path d="M893 188 c-15 -20 -34 -81 -27 -87 4 -3 9 0 11 7 6 16 50 16 56 0 2
-7 7 -10 11 -7 8 7 -23 99 -34 99 -4 0 -12 -6 -17 -12z m16 -47 c-15 -5 -22 6
-14 19 6 9 10 9 16 -1 5 -8 4 -15 -2 -18z"/>
<path d="M960 148 c0 -52 15 -58 22 -8 4 25 4 25 21 -7 25 -47 37 -41 37 17 0
28 -4 50 -10 50 -5 0 -10 -12 -10 -27 l-1 -28 -20 28 c-30 39 -39 34 -39 -25z"/>
<path d="M1076 178 c-19 -31 -29 -78 -16 -78 5 0 10 5 10 10 0 6 11 10 25 10
14 0 25 -4 25 -10 0 -5 5 -10 11 -10 11 0 7 21 -13 73 -13 33 -23 34 -42 5z
m28 -23 c3 -8 1 -15 -4 -15 -6 0 -10 7 -10 15 0 8 2 15 4 15 2 0 6 -7 10 -15z"/>
<path d="M1254 165 c-21 -51 -19 -68 6 -53 16 10 24 10 41 0 20 -13 21 -12 14
20 -16 75 -38 87 -61 33z m36 -10 c0 -8 -4 -15 -10 -15 -5 0 -10 7 -10 15 0 8
5 15 10 15 6 0 10 -7 10 -15z"/>
</g>
</svg>
